<mxfile host="app.diagrams.net" agent="Mozilla/5.0 (Windows NT 10.0; Win64; x64) AppleWebKit/537.36 (KHTML, like Gecko) Chrome/136.0.0.0 Safari/537.36 Edg/136.0.0.0" version="27.1.6" pages="2">
  <diagram name="Página-1" id="As-ylru9SlLK7KS7QaXn">
    <mxGraphModel grid="1" page="1" gridSize="10" guides="1" tooltips="1" connect="1" arrows="1" fold="1" pageScale="1" pageWidth="827" pageHeight="1169" math="0" shadow="0">
      <root>
        <mxCell id="0" />
        <mxCell id="1" parent="0" />
        <mxCell id="sEuESF4rzVyC_rkCTEI_-43" value="Usuario" style="html=1;whiteSpace=wrap;" vertex="1" parent="1">
          <mxGeometry x="600" y="410" width="110" height="50" as="geometry" />
        </mxCell>
        <mxCell id="sEuESF4rzVyC_rkCTEI_-44" value="Sistema&lt;span style=&quot;color: rgba(0, 0, 0, 0); font-family: monospace; font-size: 0px; text-align: start; text-wrap-mode: nowrap;&quot;&gt;%3CmxGraphModel%3E%3Croot%3E%3CmxCell%20id%3D%220%22%2F%3E%3CmxCell%20id%3D%221%22%20parent%3D%220%22%2F%3E%3CmxCell%20id%3D%222%22%20value%3D%22Usuario%22%20style%3D%22html%3D1%3BwhiteSpace%3Dwrap%3B%22%20vertex%3D%221%22%20parent%3D%221%22%3E%3CmxGeometry%20x%3D%2270%22%20y%3D%2240%22%20width%3D%22110%22%20height%3D%2250%22%20as%3D%22geometry%22%2F%3E%3C%2FmxCell%3E%3C%2Froot%3E%3C%2FmxGraphModel%3E&lt;/span&gt;" style="html=1;whiteSpace=wrap;" vertex="1" parent="1">
          <mxGeometry x="800" y="410" width="110" height="50" as="geometry" />
        </mxCell>
        <mxCell id="sEuESF4rzVyC_rkCTEI_-45" value="Base de datos" style="html=1;whiteSpace=wrap;" vertex="1" parent="1">
          <mxGeometry x="1000" y="410" width="110" height="50" as="geometry" />
        </mxCell>
        <mxCell id="sEuESF4rzVyC_rkCTEI_-47" value="Sistema&lt;span style=&quot;color: rgba(0, 0, 0, 0); font-family: monospace; font-size: 0px; text-align: start; text-wrap-mode: nowrap;&quot;&gt;%3CmxGraphModel%3E%3Croot%3E%3CmxCell%20id%3D%220%22%2F%3E%3CmxCell%20id%3D%221%22%20parent%3D%220%22%2F%3E%3CmxCell%20id%3D%222%22%20value%3D%22Usuario%22%20style%3D%22html%3D1%3BwhiteSpace%3Dwrap%3B%22%20vertex%3D%221%22%20parent%3D%221%22%3E%3CmxGeometry%20x%3D%2270%22%20y%3D%2240%22%20width%3D%22110%22%20height%3D%2250%22%20as%3D%22geometry%22%2F%3E%3C%2FmxCell%3E%3C%2Froot%3E%3C%2FmxGraphModel%3E&lt;/span&gt;" style="html=1;whiteSpace=wrap;" vertex="1" parent="1">
          <mxGeometry x="801.25" y="850" width="110" height="50" as="geometry" />
        </mxCell>
        <mxCell id="sEuESF4rzVyC_rkCTEI_-48" value="Base de datos" style="html=1;whiteSpace=wrap;" vertex="1" parent="1">
          <mxGeometry x="1000" y="850" width="110" height="50" as="geometry" />
        </mxCell>
        <mxCell id="sEuESF4rzVyC_rkCTEI_-51" value="" style="endArrow=none;dashed=1;html=1;rounded=0;entryX=0.5;entryY=1;entryDx=0;entryDy=0;exitX=0.5;exitY=0;exitDx=0;exitDy=0;" edge="1" parent="1" source="sEuESF4rzVyC_rkCTEI_-53" target="sEuESF4rzVyC_rkCTEI_-44">
          <mxGeometry width="50" height="50" relative="1" as="geometry">
            <mxPoint x="830" y="690" as="sourcePoint" />
            <mxPoint x="880" y="640" as="targetPoint" />
          </mxGeometry>
        </mxCell>
        <mxCell id="sEuESF4rzVyC_rkCTEI_-53" value="" style="html=1;points=[[0,0,0,0,5],[0,1,0,0,-5],[1,0,0,0,5],[1,1,0,0,-5]];perimeter=orthogonalPerimeter;outlineConnect=0;targetShapes=umlLifeline;portConstraint=eastwest;newEdgeStyle={&quot;curved&quot;:0,&quot;rounded&quot;:0};" vertex="1" parent="1">
          <mxGeometry x="850" y="500" width="10" height="30" as="geometry" />
        </mxCell>
        <mxCell id="sEuESF4rzVyC_rkCTEI_-54" value="" style="endArrow=classic;html=1;rounded=0;entryX=0;entryY=0;entryDx=0;entryDy=5;entryPerimeter=0;" edge="1" parent="1" target="sEuESF4rzVyC_rkCTEI_-53">
          <mxGeometry width="50" height="50" relative="1" as="geometry">
            <mxPoint x="660" y="505" as="sourcePoint" />
            <mxPoint x="760" y="480" as="targetPoint" />
          </mxGeometry>
        </mxCell>
        <mxCell id="sEuESF4rzVyC_rkCTEI_-55" value="1. Pulsar el apartado &quot;Evento&quot;" style="text;html=1;align=center;verticalAlign=middle;whiteSpace=wrap;rounded=0;" vertex="1" parent="1">
          <mxGeometry x="650" y="480" width="170" height="20" as="geometry" />
        </mxCell>
        <mxCell id="sEuESF4rzVyC_rkCTEI_-56" value="" style="endArrow=none;dashed=1;html=1;rounded=0;entryX=0.5;entryY=1;entryDx=0;entryDy=0;exitX=0.5;exitY=0;exitDx=0;exitDy=0;" edge="1" parent="1" source="BKR_YLH8M_4nDEO0v5Hx-3" target="sEuESF4rzVyC_rkCTEI_-45">
          <mxGeometry width="50" height="50" relative="1" as="geometry">
            <mxPoint x="1055" y="800" as="sourcePoint" />
            <mxPoint x="1055" y="460" as="targetPoint" />
          </mxGeometry>
        </mxCell>
        <mxCell id="sEuESF4rzVyC_rkCTEI_-89" value="" style="endArrow=none;dashed=1;html=1;rounded=0;exitX=0.5;exitY=0;exitDx=0;exitDy=0;" edge="1" parent="1" source="BKR_YLH8M_4nDEO0v5Hx-10" target="sEuESF4rzVyC_rkCTEI_-53">
          <mxGeometry width="50" height="50" relative="1" as="geometry">
            <mxPoint x="855" y="1070" as="sourcePoint" />
            <mxPoint x="856" y="610" as="targetPoint" />
          </mxGeometry>
        </mxCell>
        <mxCell id="sEuESF4rzVyC_rkCTEI_-90" value="" style="endArrow=classic;html=1;rounded=0;fontSize=12;startSize=8;endSize=8;curved=1;exitX=0;exitY=0;exitDx=0;exitDy=5;exitPerimeter=0;entryX=1;entryY=0;entryDx=0;entryDy=5;entryPerimeter=0;" edge="1" parent="1" source="BKR_YLH8M_4nDEO0v5Hx-10" target="sEuESF4rzVyC_rkCTEI_-93">
          <mxGeometry width="50" height="50" relative="1" as="geometry">
            <mxPoint x="840" y="620" as="sourcePoint" />
            <mxPoint x="660" y="613" as="targetPoint" />
          </mxGeometry>
        </mxCell>
        <mxCell id="sEuESF4rzVyC_rkCTEI_-91" value="4. Mostrar lista de eventos" style="text;html=1;align=center;verticalAlign=middle;whiteSpace=wrap;rounded=0;" vertex="1" parent="1">
          <mxGeometry x="655" y="585" width="190" height="20" as="geometry" />
        </mxCell>
        <mxCell id="sEuESF4rzVyC_rkCTEI_-92" value="" style="endArrow=classic;html=1;rounded=0;fontSize=12;startSize=8;endSize=8;curved=1;entryX=0;entryY=0;entryDx=0;entryDy=5;entryPerimeter=0;" edge="1" parent="1" target="BKR_YLH8M_4nDEO0v5Hx-20">
          <mxGeometry width="50" height="50" relative="1" as="geometry">
            <mxPoint x="660" y="665" as="sourcePoint" />
            <mxPoint x="845" y="714.58" as="targetPoint" />
          </mxGeometry>
        </mxCell>
        <mxCell id="sEuESF4rzVyC_rkCTEI_-97" value="5. Pulsar el botón &quot;Ver evento&quot;" style="text;html=1;align=center;verticalAlign=middle;whiteSpace=wrap;rounded=0;" vertex="1" parent="1">
          <mxGeometry x="690" y="640" width="120" height="20" as="geometry" />
        </mxCell>
        <mxCell id="BKR_YLH8M_4nDEO0v5Hx-1" value="" style="endArrow=none;dashed=1;html=1;rounded=0;exitX=0.5;exitY=0;exitDx=0;exitDy=0;entryX=0.427;entryY=0.991;entryDx=0;entryDy=0;entryPerimeter=0;" edge="1" parent="1" source="sEuESF4rzVyC_rkCTEI_-93" target="sEuESF4rzVyC_rkCTEI_-43">
          <mxGeometry width="50" height="50" relative="1" as="geometry">
            <mxPoint x="650.56" y="890" as="sourcePoint" />
            <mxPoint x="647" y="450" as="targetPoint" />
          </mxGeometry>
        </mxCell>
        <mxCell id="BKR_YLH8M_4nDEO0v5Hx-4" value="" style="endArrow=classic;html=1;rounded=0;entryX=0;entryY=0;entryDx=0;entryDy=5;entryPerimeter=0;" edge="1" parent="1" target="BKR_YLH8M_4nDEO0v5Hx-3">
          <mxGeometry width="50" height="50" relative="1" as="geometry">
            <mxPoint x="870" y="560" as="sourcePoint" />
            <mxPoint x="840" y="560" as="targetPoint" />
          </mxGeometry>
        </mxCell>
        <mxCell id="BKR_YLH8M_4nDEO0v5Hx-7" value="" style="endArrow=none;dashed=1;html=1;rounded=0;entryX=0.5;entryY=1;entryDx=0;entryDy=0;exitX=0.5;exitY=0;exitDx=0;exitDy=0;" edge="1" parent="1" source="BKR_YLH8M_4nDEO0v5Hx-22" target="BKR_YLH8M_4nDEO0v5Hx-3">
          <mxGeometry width="50" height="50" relative="1" as="geometry">
            <mxPoint x="1055" y="880" as="sourcePoint" />
            <mxPoint x="1055" y="460" as="targetPoint" />
          </mxGeometry>
        </mxCell>
        <mxCell id="BKR_YLH8M_4nDEO0v5Hx-3" value="" style="html=1;points=[[0,0,0,0,5],[0,1,0,0,-5],[1,0,0,0,5],[1,1,0,0,-5]];perimeter=orthogonalPerimeter;outlineConnect=0;targetShapes=umlLifeline;portConstraint=eastwest;newEdgeStyle={&quot;curved&quot;:0,&quot;rounded&quot;:0};" vertex="1" parent="1">
          <mxGeometry x="1050" y="555" width="10" height="30" as="geometry" />
        </mxCell>
        <mxCell id="BKR_YLH8M_4nDEO0v5Hx-8" value="2. Solicitar listado de eventos" style="text;html=1;align=center;verticalAlign=middle;whiteSpace=wrap;rounded=0;" vertex="1" parent="1">
          <mxGeometry x="870" y="535" width="170" height="20" as="geometry" />
        </mxCell>
        <mxCell id="BKR_YLH8M_4nDEO0v5Hx-9" value="" style="endArrow=classic;html=1;rounded=0;entryX=1;entryY=0;entryDx=0;entryDy=5;entryPerimeter=0;" edge="1" parent="1" target="BKR_YLH8M_4nDEO0v5Hx-10">
          <mxGeometry width="50" height="50" relative="1" as="geometry">
            <mxPoint x="1050" y="605" as="sourcePoint" />
            <mxPoint x="840" y="605" as="targetPoint" />
          </mxGeometry>
        </mxCell>
        <mxCell id="BKR_YLH8M_4nDEO0v5Hx-11" value="3. Devolver solicitado de eventos" style="text;html=1;align=center;verticalAlign=middle;whiteSpace=wrap;rounded=0;" vertex="1" parent="1">
          <mxGeometry x="870" y="580" width="170" height="20" as="geometry" />
        </mxCell>
        <mxCell id="BKR_YLH8M_4nDEO0v5Hx-12" value="" style="endArrow=none;dashed=1;html=1;rounded=0;exitX=0.5;exitY=0;exitDx=0;exitDy=0;" edge="1" parent="1" source="BKR_YLH8M_4nDEO0v5Hx-20" target="BKR_YLH8M_4nDEO0v5Hx-10">
          <mxGeometry width="50" height="50" relative="1" as="geometry">
            <mxPoint x="856" y="880" as="sourcePoint" />
            <mxPoint x="856" y="530" as="targetPoint" />
          </mxGeometry>
        </mxCell>
        <mxCell id="BKR_YLH8M_4nDEO0v5Hx-10" value="" style="html=1;points=[[0,0,0,0,5],[0,1,0,0,-5],[1,0,0,0,5],[1,1,0,0,-5]];perimeter=orthogonalPerimeter;outlineConnect=0;targetShapes=umlLifeline;portConstraint=eastwest;newEdgeStyle={&quot;curved&quot;:0,&quot;rounded&quot;:0};" vertex="1" parent="1">
          <mxGeometry x="851.25" y="600" width="10" height="30" as="geometry" />
        </mxCell>
        <mxCell id="BKR_YLH8M_4nDEO0v5Hx-14" value="" style="endArrow=none;dashed=1;html=1;rounded=0;exitX=0.5;exitY=0;exitDx=0;exitDy=0;entryX=0.427;entryY=1.014;entryDx=0;entryDy=0;entryPerimeter=0;" edge="1" parent="1" source="BKR_YLH8M_4nDEO0v5Hx-33" target="sEuESF4rzVyC_rkCTEI_-93">
          <mxGeometry width="50" height="50" relative="1" as="geometry">
            <mxPoint x="650.56" y="890" as="sourcePoint" />
            <mxPoint x="647" y="461" as="targetPoint" />
          </mxGeometry>
        </mxCell>
        <mxCell id="sEuESF4rzVyC_rkCTEI_-93" value="" style="html=1;points=[[0,0,0,0,5],[0,1,0,0,-5],[1,0,0,0,5],[1,1,0,0,-5]];perimeter=orthogonalPerimeter;outlineConnect=0;targetShapes=umlLifeline;portConstraint=eastwest;newEdgeStyle={&quot;curved&quot;:0,&quot;rounded&quot;:0};" vertex="1" parent="1">
          <mxGeometry x="640" y="600" width="10" height="30" as="geometry" />
        </mxCell>
        <mxCell id="BKR_YLH8M_4nDEO0v5Hx-21" value="" style="endArrow=none;dashed=1;html=1;rounded=0;exitX=0.5;exitY=0;exitDx=0;exitDy=0;" edge="1" parent="1" source="BKR_YLH8M_4nDEO0v5Hx-27" target="BKR_YLH8M_4nDEO0v5Hx-20">
          <mxGeometry width="50" height="50" relative="1" as="geometry">
            <mxPoint x="856" y="880" as="sourcePoint" />
            <mxPoint x="856" y="630" as="targetPoint" />
          </mxGeometry>
        </mxCell>
        <mxCell id="BKR_YLH8M_4nDEO0v5Hx-20" value="" style="html=1;points=[[0,0,0,0,5],[0,1,0,0,-5],[1,0,0,0,5],[1,1,0,0,-5]];perimeter=orthogonalPerimeter;outlineConnect=0;targetShapes=umlLifeline;portConstraint=eastwest;newEdgeStyle={&quot;curved&quot;:0,&quot;rounded&quot;:0};" vertex="1" parent="1">
          <mxGeometry x="850" y="660" width="10" height="30" as="geometry" />
        </mxCell>
        <mxCell id="BKR_YLH8M_4nDEO0v5Hx-23" value="" style="endArrow=none;dashed=1;html=1;rounded=0;entryX=0.5;entryY=1;entryDx=0;entryDy=0;exitX=0.5;exitY=0;exitDx=0;exitDy=0;" edge="1" parent="1" source="sEuESF4rzVyC_rkCTEI_-48" target="BKR_YLH8M_4nDEO0v5Hx-22">
          <mxGeometry width="50" height="50" relative="1" as="geometry">
            <mxPoint x="1055" y="880" as="sourcePoint" />
            <mxPoint x="1055" y="585" as="targetPoint" />
          </mxGeometry>
        </mxCell>
        <mxCell id="BKR_YLH8M_4nDEO0v5Hx-22" value="" style="html=1;points=[[0,0,0,0,5],[0,1,0,0,-5],[1,0,0,0,5],[1,1,0,0,-5]];perimeter=orthogonalPerimeter;outlineConnect=0;targetShapes=umlLifeline;portConstraint=eastwest;newEdgeStyle={&quot;curved&quot;:0,&quot;rounded&quot;:0};" vertex="1" parent="1">
          <mxGeometry x="1050" y="690" width="10" height="30" as="geometry" />
        </mxCell>
        <mxCell id="BKR_YLH8M_4nDEO0v5Hx-24" value="" style="endArrow=classic;html=1;rounded=0;entryX=0;entryY=0;entryDx=0;entryDy=5;entryPerimeter=0;" edge="1" parent="1" target="BKR_YLH8M_4nDEO0v5Hx-22">
          <mxGeometry width="50" height="50" relative="1" as="geometry">
            <mxPoint x="860" y="695" as="sourcePoint" />
            <mxPoint x="1030" y="600" as="targetPoint" />
          </mxGeometry>
        </mxCell>
        <mxCell id="BKR_YLH8M_4nDEO0v5Hx-25" value="6. Solicitar detalles de evento" style="text;html=1;align=center;verticalAlign=middle;whiteSpace=wrap;rounded=0;" vertex="1" parent="1">
          <mxGeometry x="870" y="665" width="170" height="20" as="geometry" />
        </mxCell>
        <mxCell id="BKR_YLH8M_4nDEO0v5Hx-26" value="7. Devuelve detalles del evento" style="text;html=1;align=center;verticalAlign=middle;whiteSpace=wrap;rounded=0;" vertex="1" parent="1">
          <mxGeometry x="885" y="710" width="140" height="20" as="geometry" />
        </mxCell>
        <mxCell id="BKR_YLH8M_4nDEO0v5Hx-28" value="" style="endArrow=classic;html=1;rounded=0;entryX=1;entryY=0;entryDx=0;entryDy=5;entryPerimeter=0;" edge="1" parent="1" target="BKR_YLH8M_4nDEO0v5Hx-27">
          <mxGeometry width="50" height="50" relative="1" as="geometry">
            <mxPoint x="1050" y="735" as="sourcePoint" />
            <mxPoint x="864.5" y="740" as="targetPoint" />
            <Array as="points" />
          </mxGeometry>
        </mxCell>
        <mxCell id="BKR_YLH8M_4nDEO0v5Hx-29" value="" style="endArrow=none;dashed=1;html=1;rounded=0;exitX=0.5;exitY=0;exitDx=0;exitDy=0;" edge="1" parent="1" source="sEuESF4rzVyC_rkCTEI_-47" target="BKR_YLH8M_4nDEO0v5Hx-27">
          <mxGeometry width="50" height="50" relative="1" as="geometry">
            <mxPoint x="856" y="880" as="sourcePoint" />
            <mxPoint x="856" y="690" as="targetPoint" />
          </mxGeometry>
        </mxCell>
        <mxCell id="BKR_YLH8M_4nDEO0v5Hx-27" value="" style="html=1;points=[[0,0,0,0,5],[0,1,0,0,-5],[1,0,0,0,5],[1,1,0,0,-5]];perimeter=orthogonalPerimeter;outlineConnect=0;targetShapes=umlLifeline;portConstraint=eastwest;newEdgeStyle={&quot;curved&quot;:0,&quot;rounded&quot;:0};" vertex="1" parent="1">
          <mxGeometry x="851.25" y="730" width="10" height="30" as="geometry" />
        </mxCell>
        <mxCell id="BKR_YLH8M_4nDEO0v5Hx-31" value="8. Mostrar detalles de evento" style="text;html=1;align=center;verticalAlign=middle;whiteSpace=wrap;rounded=0;" vertex="1" parent="1">
          <mxGeometry x="678.75" y="760" width="140" height="20" as="geometry" />
        </mxCell>
        <mxCell id="BKR_YLH8M_4nDEO0v5Hx-32" value="" style="endArrow=classic;html=1;rounded=0;entryX=1;entryY=0;entryDx=0;entryDy=5;entryPerimeter=0;" edge="1" parent="1" target="BKR_YLH8M_4nDEO0v5Hx-33">
          <mxGeometry width="50" height="50" relative="1" as="geometry">
            <mxPoint x="850" y="785" as="sourcePoint" />
            <mxPoint x="658.25" y="790" as="targetPoint" />
            <Array as="points" />
          </mxGeometry>
        </mxCell>
        <mxCell id="BKR_YLH8M_4nDEO0v5Hx-34" value="" style="endArrow=none;dashed=1;html=1;rounded=0;exitX=0.5;exitY=0;exitDx=0;exitDy=0;entryX=0.427;entryY=1.014;entryDx=0;entryDy=0;entryPerimeter=0;" edge="1" parent="1" target="sEuESF4rzVyC_rkCTEI_-46">
          <mxGeometry width="50" height="50" relative="1" as="geometry">
            <mxPoint x="650.56" y="860" as="sourcePoint" />
            <mxPoint x="649" y="600" as="targetPoint" />
          </mxGeometry>
        </mxCell>
        <mxCell id="sEuESF4rzVyC_rkCTEI_-46" value="Usuario" style="html=1;whiteSpace=wrap;" vertex="1" parent="1">
          <mxGeometry x="595" y="840" width="110" height="50" as="geometry" />
        </mxCell>
        <mxCell id="BKR_YLH8M_4nDEO0v5Hx-35" value="" style="endArrow=none;dashed=1;html=1;rounded=0;exitX=0.442;exitY=-0.053;exitDx=0;exitDy=0;entryX=0.427;entryY=1.014;entryDx=0;entryDy=0;entryPerimeter=0;exitPerimeter=0;" edge="1" parent="1" source="sEuESF4rzVyC_rkCTEI_-46" target="BKR_YLH8M_4nDEO0v5Hx-33">
          <mxGeometry width="50" height="50" relative="1" as="geometry">
            <mxPoint x="650" y="870" as="sourcePoint" />
            <mxPoint x="644" y="630" as="targetPoint" />
          </mxGeometry>
        </mxCell>
        <mxCell id="BKR_YLH8M_4nDEO0v5Hx-33" value="" style="html=1;points=[[0,0,0,0,5],[0,1,0,0,-5],[1,0,0,0,5],[1,1,0,0,-5]];perimeter=orthogonalPerimeter;outlineConnect=0;targetShapes=umlLifeline;portConstraint=eastwest;newEdgeStyle={&quot;curved&quot;:0,&quot;rounded&quot;:0};" vertex="1" parent="1">
          <mxGeometry x="640" y="780" width="10" height="30" as="geometry" />
        </mxCell>
      </root>
    </mxGraphModel>
  </diagram>
  <diagram id="nIOQxxJyPP5hoQOKl2aF" name="Página-2">
    <mxGraphModel dx="1111" dy="507" grid="1" gridSize="10" guides="1" tooltips="1" connect="1" arrows="1" fold="1" page="1" pageScale="1" pageWidth="827" pageHeight="1169" math="0" shadow="0">
      <root>
        <mxCell id="0" />
        <mxCell id="1" parent="0" />
      </root>
    </mxGraphModel>
  </diagram>
</mxfile>
